<svg width="500" height="500" viewBox="0 0 500 500" fill="none" xmlns="http://www.w3.org/2000/svg">
<path d="M129.188 235.625C129.792 236.03 130.32 236.538 130.75 237.125V182.063L87 157.75V212.188L128.5 235.25L129.188 235.625ZM143.25 236.5L187 212.188V157.75L143.25 182.063V236.5ZM180.375 147.125L137 123L93.625 147.125L137 171.25L180.375 147.125ZM355.75 182.063L312 157.75V212.188L355.75 236.5V182.063ZM368.25 182.063V237.125C368.68 236.538 369.208 236.03 369.812 235.625L370.5 235.25L412 212.188V157.75L368.25 182.063ZM405.375 147.125L362 123L318.625 147.125L362 171.25L405.375 147.125ZM87 418.438L130.75 442.75V388.312L87 364V418.438ZM143.25 442.75L187 418.438V364L143.25 388.312V442.75ZM137 329.25L129.625 333.313H129.313L128.375 333.875L93.625 353.375L137 377.5L180.375 353.375L137 329.25ZM312 418.438L355.75 442.75V388.312L312 364V418.438ZM368.25 442.75L412 418.438V364L368.25 388.312V442.75ZM370.875 334.188L369.938 333.625L362 329.25L318.625 353.375L362 377.5L405.375 353.375L370.875 334.188ZM118.25 243.812C109.988 270.394 109.988 298.856 118.25 325.438L129.438 319.188C122.936 296.562 122.936 272.563 129.438 249.938L118.25 243.812ZM199.5 399.188V412.75C231.661 425.252 267.339 425.252 299.5 412.75V399.188C283.729 406.07 266.707 409.623 249.5 409.623C232.293 409.623 215.271 406.07 199.5 399.188ZM380.75 325.438C389.012 298.856 389.012 270.394 380.75 243.812L369.562 250.062C376.064 272.688 376.064 296.687 369.562 319.312L380.75 325.438ZM199.5 156.5V170.062C215.271 163.18 232.293 159.627 249.5 159.627C266.707 159.627 283.729 163.18 299.5 170.062V156.5C267.339 143.998 231.661 143.998 199.5 156.5ZM276.75 281.812C279.389 278.182 280.791 273.8 280.75 269.312V268.562C280.778 263.317 278.887 258.242 275.434 254.294C271.98 250.346 267.202 247.796 262 247.125V240.875C262 239.217 261.342 237.628 260.169 236.456C258.997 235.283 257.408 234.625 255.75 234.625C254.092 234.625 252.503 235.283 251.331 236.456C250.158 237.628 249.5 239.217 249.5 240.875V247.125H237V240.875C237 239.217 236.342 237.628 235.169 236.456C233.997 235.283 232.408 234.625 230.75 234.625C229.092 234.625 227.503 235.283 226.331 236.456C225.158 237.628 224.5 239.217 224.5 240.875V247.125H218.25C216.592 247.125 215.003 247.783 213.831 248.956C212.658 250.128 212 251.717 212 253.375C212 255.033 212.658 256.622 213.831 257.794C215.003 258.967 216.592 259.625 218.25 259.625V309.625C216.592 309.625 215.003 310.283 213.831 311.456C212.658 312.628 212 314.217 212 315.875C212 317.533 212.658 319.122 213.831 320.294C215.003 321.467 216.592 322.125 218.25 322.125H224.5V328.375C224.5 330.033 225.158 331.622 226.331 332.794C227.503 333.967 229.092 334.625 230.75 334.625C232.408 334.625 233.997 333.967 235.169 332.794C236.342 331.622 237 330.033 237 328.375V322.125H249.5V328.375C249.5 330.033 250.158 331.622 251.331 332.794C252.503 333.967 254.092 334.625 255.75 334.625C257.408 334.625 258.997 333.967 260.169 332.794C261.342 331.622 262 330.033 262 328.375V322.125H265.125C270.927 322.125 276.491 319.82 280.593 315.718C284.695 311.616 287 306.052 287 300.25C287.014 296.556 286.078 292.921 284.284 289.692C282.489 286.464 279.895 283.75 276.75 281.812ZM230.75 259.625H259.25C261.632 259.641 263.912 260.595 265.596 262.279C267.28 263.963 268.234 266.243 268.25 268.625V269.375C268.234 271.757 267.28 274.037 265.596 275.721C263.912 277.405 261.632 278.359 259.25 278.375H230.75V259.625ZM265.125 309.625H230.75V290.875H265.125C267.611 290.875 269.996 291.863 271.754 293.621C273.512 295.379 274.5 297.764 274.5 300.25C274.5 302.736 273.512 305.121 271.754 306.879C269.996 308.637 267.611 309.625 265.125 309.625Z" fill="#FF5733"/>
<g opacity="0.8" filter="url(#filter0_d)">
<path d="M333.843 153.653C336.16 156.321 336.61 159.256 335.195 162.458L230.961 393.997C229.289 397.332 226.586 399 222.854 399C222.34 399 221.439 398.867 220.152 398.6C217.964 397.933 216.324 396.665 215.23 394.797C214.136 392.93 213.847 390.928 214.361 388.794L252.387 227.097L174.019 247.309C173.504 247.442 172.732 247.509 171.703 247.509C169.387 247.509 167.392 246.775 165.719 245.308C163.403 243.306 162.566 240.705 163.21 237.503L202.008 72.4038C202.522 70.5361 203.552 69.0018 205.096 67.8011C206.64 66.6004 208.442 66 210.501 66H273.813C276.258 66 278.317 66.8338 279.99 68.5015C281.662 70.1692 282.499 72.137 282.499 74.405C282.499 75.4724 282.177 76.6731 281.534 78.0072L248.527 170.663L324.964 151.051C325.994 150.784 326.766 150.651 327.281 150.651C329.726 150.651 331.913 151.651 333.843 153.653Z" fill="#58D68D"/>
<path d="M333.843 153.653C336.16 156.321 336.61 159.256 335.195 162.458L230.961 393.997C229.289 397.332 226.586 399 222.854 399C222.34 399 221.439 398.867 220.152 398.6C217.964 397.933 216.324 396.665 215.23 394.797C214.136 392.93 213.847 390.928 214.361 388.794L252.387 227.097L174.019 247.309C173.504 247.442 172.732 247.509 171.703 247.509C169.387 247.509 167.392 246.775 165.719 245.308C163.403 243.306 162.566 240.705 163.21 237.503L202.008 72.4038C202.522 70.5361 203.552 69.0018 205.096 67.8011C206.64 66.6004 208.442 66 210.501 66H273.813C276.258 66 278.317 66.8338 279.99 68.5015C281.662 70.1692 282.499 72.137 282.499 74.405C282.499 75.4724 282.177 76.6731 281.534 78.0072L248.527 170.663L324.964 151.051C325.994 150.784 326.766 150.651 327.281 150.651C329.726 150.651 331.913 151.651 333.843 153.653Z" fill="url(#paint0_linear)"/>
</g>
<defs>
<filter id="filter0_d" x="159" y="66" width="181" height="341" filterUnits="userSpaceOnUse" color-interpolation-filters="sRGB">
<feFlood flood-opacity="0" result="BackgroundImageFix"/>
<feColorMatrix in="SourceAlpha" type="matrix" values="0 0 0 0 0 0 0 0 0 0 0 0 0 0 0 0 0 0 127 0"/>
<feOffset dy="4"/>
<feGaussianBlur stdDeviation="2"/>
<feColorMatrix type="matrix" values="0 0 0 0 0 0 0 0 0 0 0 0 0 0 0 0 0 0 0.25 0"/>
<feBlend mode="normal" in2="BackgroundImageFix" result="effect1_dropShadow"/>
<feBlend mode="normal" in="SourceGraphic" in2="effect1_dropShadow" result="shape"/>
</filter>
<linearGradient id="paint0_linear" x1="249.5" y1="66" x2="249.5" y2="399" gradientUnits="userSpaceOnUse">
<stop offset="0.510417" stop-color="white" stop-opacity="0"/>
<stop offset="1" stop-color="white"/>
</linearGradient>
</defs>
</svg>
